# xmcd CD database file
#
# Track frame offsets:
#	150
#	18342
#	38442
#	58309
#	77911
#	103214
#	137925
#	162634
#	196022
#	223009
#	241191
#
# Disc length: 3681 seconds
#
# Revision: 0
# Processed by: cddbd v1.5.2PL0 Copyright (c) Steve Scherf et al.
# Submitted via: CDex 1.70beta2
#
DISCID=980e5f0b
DTITLE=Olli Ojajarvi Trio - Out Of Mind
DYEAR=2009
DGENRE=Jazz
TTITLE0=Stones Tones
TTITLE1=Tempus Fugit
TTITLE2=Onece Upon a Summertime
TTITLE3=Beats Me
TTITLE4=Modest Enough
TTITLE5=With You
TTITLE6=To Be Honest
TTITLE7=Out of Mind
TTITLE8=Just a Matter of Time
TTITLE9=Timbuktu(Far Away)
TTITLE10=Sensitivity
EXTD=YEAR: 2009
EXTT0=
EXTT1=
EXTT2=
EXTT3=
EXTT4=
EXTT5=
EXTT6=
EXTT7=
EXTT8=
EXTT9=
EXTT10=
PLAYORDER=
